<?xml version="1.0" standalone="no"?>
<!DOCTYPE svg PUBLIC "-//W3C//DTD SVG 20010904//EN"
 "http://www.w3.org/TR/2001/REC-SVG-20010904/DTD/svg10.dtd">
<svg version="1.0" xmlns="http://www.w3.org/2000/svg"
 width="512.000000pt" height="512.000000pt" viewBox="0 0 512.000000 512.000000"
 preserveAspectRatio="xMidYMid meet">
<metadata>
Created by potrace 1.11, written by Peter Selinger 2001-2013
</metadata>
<g transform="translate(0.000000,512.000000) scale(0.100000,-0.100000)"
fill="#016b8f" stroke="none">
<path d="M1673 4140 c-35 -14 -63 -68 -63 -122 l0 -48 955 0 955 0 0 43 c0 52
-27 108 -60 124 -19 10 -219 13 -895 12 -492 0 -880 -4 -892 -9z"/>
<path d="M1198 3819 c-17 -7 -35 -26 -47 -53 -19 -38 -21 -61 -21 -229 l0
-187 1441 0 1442 0 -5 188 c-4 163 -8 192 -26 228 -11 22 -32 45 -47 52 -33
15 -2695 16 -2737 1z"/>
<path d="M850 3454 c-123 -79 -155 -107 -181 -161 -21 -42 -24 -61 -22 -153 2
-159 179 -1987 197 -2038 22 -62 52 -99 99 -125 l42 -22 1544 -3 c1021 -1
1563 1 1600 8 88 16 138 65 166 164 18 65 185 1869 185 1997 0 169 -37 230
-201 329 -55 33 -104 60 -109 60 -6 0 -10 -65 -10 -160 l0 -160 -1600 0 -1600
0 0 160 c0 122 -3 160 -12 159 -7 0 -51 -25 -98 -55z"/>
</g>
</svg>
