<?xml version="1.0" standalone="no"?>
<!DOCTYPE svg PUBLIC "-//W3C//DTD SVG 20010904//EN"
 "http://www.w3.org/TR/2001/REC-SVG-20010904/DTD/svg10.dtd">
<svg version="1.0" xmlns="http://www.w3.org/2000/svg"
 width="512.000000pt" height="512.000000pt" viewBox="0 0 512.000000 512.000000"
 preserveAspectRatio="xMidYMid meet">
<metadata>
Created by potrace 1.11, written by Peter Selinger 2001-2013
</metadata>
<g transform="translate(0.000000,512.000000) scale(0.100000,-0.100000)"
fill="#016b8f" stroke="none">
<path d="M2535 4794 c-349 -38 -663 -119 -903 -234 -267 -127 -473 -321 -594
-557 -76 -146 -97 -258 -64 -337 26 -62 47 -58 104 17 118 156 295 312 431
380 83 41 84 42 216 45 173 5 267 -12 395 -75 78 -38 109 -60 176 -127 139
-139 177 -256 178 -540 l1 -169 -40 -13 c-22 -8 -49 -25 -61 -38 -21 -23 -21
-33 -27 -647 -8 -752 -25 -1148 -82 -1827 -14 -161 -25 -297 -25 -302 0 -6 9
-19 20 -30 19 -19 33 -20 460 -20 435 0 440 0 461 21 19 19 21 29 15 88 -67
698 -95 1265 -103 2069 -7 713 1 659 -100 688 l-56 16 6 242 c7 267 13 313 57
403 37 75 159 194 243 237 48 24 66 28 116 24 36 -2 78 -14 107 -29 l49 -25 5
-93 c4 -77 8 -95 24 -107 16 -11 74 -14 298 -14 265 0 279 1 298 20 19 19 20
33 20 460 0 427 -1 441 -20 460 -19 19 -33 20 -300 20 -267 0 -281 -1 -300
-20 -13 -13 -20 -33 -20 -59 0 -33 -6 -44 -37 -70 -52 -43 -94 -61 -143 -61
-39 0 -48 6 -124 79 -44 43 -90 83 -102 89 -11 6 -59 16 -105 22 -90 12 -408
21 -474 14z"/>
</g>
</svg>
