<?xml version="1.0" standalone="no"?>
<!DOCTYPE svg PUBLIC "-//W3C//DTD SVG 20010904//EN"
 "http://www.w3.org/TR/2001/REC-SVG-20010904/DTD/svg10.dtd">
<svg version="1.0" xmlns="http://www.w3.org/2000/svg"
 width="512.000000pt" height="512.000000pt" viewBox="0 0 512.000000 512.000000"
 preserveAspectRatio="xMidYMid meet">
<metadata>
Created by potrace 1.11, written by Peter Selinger 2001-2013
</metadata>
<g transform="translate(0.000000,512.000000) scale(0.100000,-0.100000)"
fill="#016b8f" stroke="none">
<path d="M2425 4794 c-393 -43 -725 -221 -937 -504 -147 -195 -208 -395 -208
-680 0 -182 -6 -170 111 -224 204 -94 702 -196 896 -184 57 4 69 8 89 32 l24
27 0 466 c0 518 -1 508 68 561 29 22 46 27 92 27 46 0 63 -5 92 -27 69 -53 68
-44 68 -556 0 -263 4 -471 9 -485 15 -39 67 -51 190 -44 288 18 649 100 831
190 l85 42 3 164 c3 175 -9 270 -49 392 -128 392 -509 701 -965 784 -89 16
-323 27 -399 19z"/>
<path d="M1280 2276 c0 -989 0 -991 51 -1147 105 -324 391 -600 752 -728 167
-59 271 -75 477 -75 153 0 202 4 287 22 268 58 498 179 671 351 148 148 237
302 293 502 l24 84 3 958 c1 526 -1 957 -6 957 -4 0 -66 -21 -137 -46 -725
-256 -1532 -256 -2260 0 -71 26 -135 46 -142 46 -11 0 -13 -177 -13 -924z"/>
</g>
</svg>
