<?xml version="1.0" standalone="no"?>
<!DOCTYPE svg PUBLIC "-//W3C//DTD SVG 20010904//EN"
 "http://www.w3.org/TR/2001/REC-SVG-20010904/DTD/svg10.dtd">
<svg version="1.0" xmlns="http://www.w3.org/2000/svg"
 width="512.000000pt" height="512.000000pt" viewBox="0 0 512.000000 512.000000"
 preserveAspectRatio="xMidYMid meet">
<metadata>
Created by potrace 1.11, written by Peter Selinger 2001-2013
</metadata>
<g transform="translate(0.000000,512.000000) scale(0.100000,-0.100000)"
fill="#016b8f" stroke="none">
<path d="M2175 4788 c-134 -15 -314 -55 -440 -98 -777 -266 -1315 -941 -1404
-1762 -12 -106 -15 -327 -5 -352 6 -14 114 -16 1120 -16 l1114 0 0 1114 c0
1006 -2 1114 -16 1120 -23 9 -275 5 -369 -6z"/>
<path d="M2880 3355 l0 -1115 -1116 0 -1117 0 6 -74 c23 -274 157 -645 325
-901 383 -586 1044 -944 1740 -945 896 -1 1699 580 1976 1430 141 433 141 869
0 1300 -221 673 -776 1190 -1466 1365 -101 26 -270 55 -320 55 l-28 0 0 -1115z"/>
</g>
</svg>
