<?xml version="1.0" standalone="no"?>
<!DOCTYPE svg PUBLIC "-//W3C//DTD SVG 20010904//EN"
 "http://www.w3.org/TR/2001/REC-SVG-20010904/DTD/svg10.dtd">
<svg version="1.0" xmlns="http://www.w3.org/2000/svg"
 width="512.000000pt" height="512.000000pt" viewBox="0 0 512.000000 512.000000"
 preserveAspectRatio="xMidYMid meet">
<metadata>
Created by potrace 1.11, written by Peter Selinger 2001-2013
</metadata>
<g transform="translate(0.000000,512.000000) scale(0.100000,-0.100000)"
fill="#016b8f" stroke="none">
<path d="M2390 4794 c-539 -50 -1001 -257 -1380 -621 -359 -344 -588 -785
-667 -1288 -24 -153 -24 -497 0 -650 75 -475 280 -890 606 -1228 347 -359 785
-585 1286 -664 153 -24 497 -24 650 0 988 156 1736 904 1892 1892 24 151 24
496 0 650 -154 984 -910 1742 -1887 1890 -103 15 -411 27 -500 19z m630 -371
c549 -131 1018 -513 1270 -1035 182 -378 234 -818 146 -1233 -127 -594 -552
-1115 -1104 -1355 -142 -61 -383 -132 -398 -117 -3 3 11 38 32 79 30 59 63 98
169 203 154 152 191 198 250 314 24 47 66 122 94 166 55 86 58 98 37 149 -35
83 -141 167 -338 269 -70 36 -185 105 -255 153 -70 48 -149 102 -176 120 -62
43 -110 49 -247 30 -225 -31 -264 -23 -438 90 -120 78 -386 288 -416 327 -60
81 -86 173 -86 313 l0 72 103 7 c115 7 214 -5 258 -33 16 -10 54 -48 84 -85
59 -71 104 -102 135 -92 43 14 38 83 -16 213 -19 45 -34 93 -34 107 0 32 49
87 124 138 94 63 388 319 419 363 34 51 34 81 -1 130 -82 113 -234 214 -321
214 -45 0 -48 -2 -158 -112 l-113 -113 0 103 0 102 -36 40 c-25 27 -34 45 -30
58 7 20 95 107 180 177 l49 41 -59 42 c-32 23 -70 45 -84 49 -20 5 -165 -37
-262 -75 -4 -2 -8 14 -8 36 l0 39 93 36 c102 39 261 82 344 93 43 5 63 2 122
-21 61 -24 80 -38 128 -94 114 -133 155 -170 206 -187 l49 -16 73 72 72 72
-18 49 c-11 27 -19 70 -19 95 l0 45 38 -7 c20 -3 84 -17 142 -31z m-1909 -966
c-2 -291 4 -333 64 -449 19 -38 51 -98 70 -135 19 -38 46 -111 59 -163 13 -52
28 -106 34 -120 14 -35 62 -81 141 -137 36 -25 143 -108 236 -183 94 -75 220
-171 282 -214 141 -96 163 -122 163 -185 0 -61 -41 -224 -71 -282 -28 -55 -26
-83 13 -178 36 -86 90 -149 245 -283 50 -43 97 -93 103 -109 21 -50 6 -108
-60 -240 -59 -117 -65 -125 -89 -122 -641 97 -1169 476 -1454 1044 -195 386
-251 807 -167 1243 54 275 191 573 369 800 l46 58 9 -43 c5 -24 9 -160 7 -302z"/>
<path d="M3440 4141 c0 -6 54 -119 119 -253 91 -186 140 -274 211 -373 101
-144 155 -245 170 -320 6 -27 14 -183 20 -345 10 -330 20 -395 85 -527 33 -67
165 -225 178 -213 3 3 13 39 22 80 13 58 19 163 26 470 11 500 9 523 -65 645
-24 39 -69 115 -101 170 -95 163 -135 211 -371 434 -197 187 -294 263 -294
232z"/>
</g>
</svg>
