<?xml version="1.0" standalone="no"?>
<!DOCTYPE svg PUBLIC "-//W3C//DTD SVG 20010904//EN"
 "http://www.w3.org/TR/2001/REC-SVG-20010904/DTD/svg10.dtd">
<svg version="1.0" xmlns="http://www.w3.org/2000/svg"
 width="512.000000pt" height="512.000000pt" viewBox="0 0 512.000000 512.000000"
 preserveAspectRatio="xMidYMid meet">
<metadata>
Created by potrace 1.11, written by Peter Selinger 2001-2013
</metadata>
<g transform="translate(0.000000,512.000000) scale(0.100000,-0.100000)"
fill="#016b8f" stroke="none">
<path d="M3945 4787 c-83 -28 -116 -55 -358 -295 l-247 -247 452 -452 453
-453 233 233 c129 127 246 250 262 272 33 49 60 133 60 191 0 24 -10 69 -21
101 -20 53 -45 82 -293 331 -300 302 -326 321 -438 328 -36 2 -80 -2 -103 -9z"/>
<path d="M1975 2880 l-1250 -1250 453 -452 452 -453 1252 1252 1253 1253 -450
450 c-247 247 -452 450 -455 450 -3 0 -568 -563 -1255 -1250z"/>
<path d="M636 1470 c-12 -35 -166 -638 -166 -651 0 -18 331 -349 349 -349 20
0 645 162 653 169 4 4 -181 195 -412 426 -276 276 -421 414 -424 405z"/>
<path d="M367 483 c-25 -87 -45 -159 -44 -160 2 -2 256 72 305 88 7 2 -36 53
-101 117 l-113 113 -47 -158z"/>
</g>
</svg>
