<?xml version="1.0" standalone="no"?>
<!DOCTYPE svg PUBLIC "-//W3C//DTD SVG 20010904//EN"
 "http://www.w3.org/TR/2001/REC-SVG-20010904/DTD/svg10.dtd">
<svg version="1.0" xmlns="http://www.w3.org/2000/svg"
 width="512.000000pt" height="512.000000pt" viewBox="0 0 512.000000 512.000000"
 preserveAspectRatio="xMidYMid meet">
<metadata>
Created by potrace 1.11, written by Peter Selinger 2001-2013
</metadata>
<g transform="translate(0.000000,512.000000) scale(0.100000,-0.100000)"
fill="#016b8f" stroke="none">
<path d="M2395 4634 c-309 -33 -542 -97 -785 -218 -630 -312 -1046 -904 -1121
-1591 -14 -130 -7 -370 15 -500 104 -620 487 -1147 1059 -1453 198 -107 461
-191 706 -226 150 -22 431 -22 577 -1 152 22 340 70 464 118 95 37 113 41 195
41 l90 -1 430 -160 c237 -88 431 -157 433 -153 1 4 -45 197 -103 428 -61 247
-105 441 -105 469 0 56 19 100 85 202 68 104 167 317 208 446 265 827 -41
1715 -768 2226 -255 179 -571 304 -900 354 -98 16 -401 27 -480 19z"/>
</g>
</svg>
