<?xml version="1.0" standalone="no"?>
<!DOCTYPE svg PUBLIC "-//W3C//DTD SVG 20010904//EN"
 "http://www.w3.org/TR/2001/REC-SVG-20010904/DTD/svg10.dtd">
<svg version="1.0" xmlns="http://www.w3.org/2000/svg"
 width="512.000000pt" height="512.000000pt" viewBox="0 0 512.000000 512.000000"
 preserveAspectRatio="xMidYMid meet">
<metadata>
Created by potrace 1.11, written by Peter Selinger 2001-2013
</metadata>
<g transform="translate(0.000000,512.000000) scale(0.100000,-0.100000)"
fill="#016b8f" stroke="none">
<path d="M2470 4780 c-30 -10 -476 -208 -990 -439 -652 -293 -942 -428 -957
-446 -34 -38 -30 -84 10 -128 25 -29 238 -145 972 -532 517 -272 956 -500 975
-505 45 -13 115 -13 160 0 46 13 1908 996 1937 1022 55 51 50 130 -11 167 -44
27 -1827 829 -1906 857 -79 28 -118 29 -190 4z"/>
<path d="M395 3426 c-16 -7 -39 -23 -50 -36 -20 -22 -20 -36 -20 -999 l0 -976
28 -47 c15 -26 43 -59 61 -73 19 -14 434 -238 922 -498 844 -448 892 -472 941
-472 46 0 57 4 85 33 l33 32 0 988 0 987 -28 47 c-15 26 -42 58 -60 72 -60 45
-1811 948 -1847 952 -19 2 -48 -2 -65 -10z"/>
<path d="M4550 3392 c-52 -27 -457 -237 -900 -467 -443 -229 -820 -428 -837
-441 -18 -14 -45 -46 -60 -72 l-28 -47 -3 -982 -2 -983 34 -37 c32 -35 39 -38
88 -38 51 0 92 21 943 473 489 260 904 484 922 498 18 13 45 46 60 72 l28 47
2 965 c3 1035 5 993 -48 1032 -52 39 -94 34 -199 -20z"/>
</g>
</svg>
