<?xml version="1.0" standalone="no"?>
<!DOCTYPE svg PUBLIC "-//W3C//DTD SVG 20010904//EN"
 "http://www.w3.org/TR/2001/REC-SVG-20010904/DTD/svg10.dtd">
<svg version="1.0" xmlns="http://www.w3.org/2000/svg"
 width="512.000000pt" height="512.000000pt" viewBox="0 0 512.000000 512.000000"
 preserveAspectRatio="xMidYMid meet">
<metadata>
Created by potrace 1.11, written by Peter Selinger 2001-2013
</metadata>
<g transform="translate(0.000000,512.000000) scale(0.100000,-0.100000)"
fill="#016b8f" stroke="none">
<path d="M975 4146 c-63 -28 -68 -46 -99 -416 -14 -162 -28 -312 -30 -332 l-4
-38 1720 0 1720 0 -6 88 c-3 48 -8 134 -12 192 -3 58 -12 120 -20 138 -26 64
4 62 -902 62 -717 0 -825 2 -873 16 -49 14 -67 29 -186 149 -101 103 -140 136
-170 144 -60 17 -1099 14 -1138 -3z"/>
<path d="M725 3185 c-48 -17 -72 -44 -81 -92 -7 -39 121 -1899 137 -1978 12
-65 40 -109 81 -132 31 -17 114 -18 1703 -18 1652 0 1670 0 1704 20 47 28 69
61 80 120 5 28 37 487 72 1021 69 1068 69 1017 5 1052 -29 16 -158 17 -1846
19 -1549 2 -1821 0 -1855 -12z"/>
</g>
</svg>
