<?xml version="1.0" standalone="no"?>
<!DOCTYPE svg PUBLIC "-//W3C//DTD SVG 20010904//EN"
 "http://www.w3.org/TR/2001/REC-SVG-20010904/DTD/svg10.dtd">
<svg version="1.0" xmlns="http://www.w3.org/2000/svg"
 width="512.000000pt" height="512.000000pt" viewBox="0 0 512.000000 512.000000"
 preserveAspectRatio="xMidYMid meet">
<metadata>
Created by potrace 1.11, written by Peter Selinger 2001-2013
</metadata>
<g transform="translate(0.000000,512.000000) scale(0.100000,-0.100000)"
fill="#016b8f" stroke="none">
<path d="M2716 4630 c-536 -62 -991 -335 -1280 -770 -242 -364 -327 -840 -226
-1266 57 -242 163 -458 321 -654 407 -506 1075 -744 1719 -614 101 21 236 60
312 91 45 17 82 25 128 25 59 0 97 -12 425 -136 197 -74 360 -134 361 -133 1
1 -36 164 -83 362 -99 427 -99 416 -19 543 186 298 281 646 262 962 -26 422
-187 786 -477 1079 -263 265 -593 434 -969 497 -107 18 -370 26 -474 14z"/>
<path d="M873 2976 c-191 -199 -311 -429 -370 -706 -25 -117 -25 -389 0 -513
35 -174 103 -343 205 -509 23 -38 44 -85 47 -105 4 -25 -15 -144 -54 -347 -33
-171 -59 -311 -58 -312 1 -1 133 50 292 113 349 138 349 138 526 76 205 -73
406 -100 614 -83 360 30 672 168 930 412 52 50 95 93 95 97 0 4 -42 0 -92 -10
-160 -31 -342 -42 -481 -29 -500 47 -921 266 -1222 635 -216 265 -336 564
-366 908 -11 128 -1 323 21 422 5 22 8 41 6 42 -2 2 -44 -39 -93 -91z"/>
</g>
</svg>
