<?xml version="1.0" standalone="no"?>
<!DOCTYPE svg PUBLIC "-//W3C//DTD SVG 20010904//EN"
 "http://www.w3.org/TR/2001/REC-SVG-20010904/DTD/svg10.dtd">
<svg version="1.0" xmlns="http://www.w3.org/2000/svg"
 width="512.000000pt" height="512.000000pt" viewBox="0 0 512.000000 512.000000"
 preserveAspectRatio="xMidYMid meet">
<metadata>
Created by potrace 1.11, written by Peter Selinger 2001-2013
</metadata>
<g transform="translate(0.000000,512.000000) scale(0.100000,-0.100000)"
fill="#016b8f" stroke="none">
<path d="M2390 4794 c-539 -50 -1001 -257 -1380 -621 -359 -344 -588 -785
-667 -1288 -24 -153 -24 -497 0 -650 75 -475 280 -890 606 -1228 347 -359 785
-585 1286 -664 153 -24 497 -24 650 0 988 156 1736 904 1892 1892 24 151 24
496 0 650 -154 984 -910 1742 -1887 1890 -103 15 -411 27 -500 19z m1155
-1290 c167 -132 175 -139 175 -165 0 -9 -321 -427 -713 -930 -632 -811 -715
-914 -739 -914 -22 0 -105 74 -442 399 -229 219 -418 407 -421 417 -9 27 -4
33 148 194 97 101 145 145 161 145 14 0 86 -61 221 -192 110 -105 219 -209
241 -230 l42 -40 561 721 c443 568 567 721 584 721 13 0 87 -52 182 -126z"/>
</g>
</svg>
