<?xml version="1.0" standalone="no"?>
<!DOCTYPE svg PUBLIC "-//W3C//DTD SVG 20010904//EN"
 "http://www.w3.org/TR/2001/REC-SVG-20010904/DTD/svg10.dtd">
<svg version="1.0" xmlns="http://www.w3.org/2000/svg"
 width="512.000000pt" height="512.000000pt" viewBox="0 0 512.000000 512.000000"
 preserveAspectRatio="xMidYMid meet">
<metadata>
Created by potrace 1.11, written by Peter Selinger 2001-2013
</metadata>
<g transform="translate(0.000000,512.000000) scale(0.100000,-0.100000)"
fill="#016b8f" stroke="none">
<path d="M2475 4794 c-399 -40 -620 -101 -926 -255 -282 -142 -518 -328 -711
-558 -401 -481 -572 -1059 -503 -1701 112 -1049 845 -1787 1920 -1936 160 -21
473 -29 640 -15 666 57 1219 289 1584 665 l55 55 -20 23 c-10 13 -79 88 -153
168 -74 80 -140 151 -146 158 -10 11 -27 0 -91 -55 -260 -224 -554 -382 -851
-458 -184 -47 -307 -60 -573 -59 -211 0 -263 3 -375 23 -821 145 -1332 697
-1406 1516 -52 576 144 1131 529 1497 404 383 1000 530 1638 403 622 -124
1043 -540 1144 -1130 58 -338 24 -689 -90 -920 -108 -221 -248 -328 -431 -328
-83 0 -124 21 -159 84 -23 41 -25 53 -24 174 0 98 7 164 27 270 33 165 245
1182 253 1208 5 16 -12 17 -268 17 l-274 0 -19 -97 c-27 -146 -26 -145 -62
-81 -35 62 -120 143 -190 183 -104 58 -186 78 -343 83 -162 5 -268 -10 -393
-54 -262 -94 -507 -314 -652 -587 -222 -417 -243 -935 -53 -1279 90 -161 188
-258 333 -329 132 -64 216 -82 390 -82 216 -1 330 30 484 134 81 54 261 226
261 250 0 5 8 9 19 9 14 0 20 -10 25 -48 20 -153 151 -277 346 -329 85 -23
304 -22 408 1 244 54 418 151 587 328 256 267 395 661 395 1122 0 453 -116
820 -362 1147 -307 408 -824 683 -1433 764 -116 16 -447 27 -530 19z m330
-1593 c150 -74 225 -235 225 -486 0 -269 -88 -514 -240 -665 -85 -85 -148
-123 -241 -145 -105 -24 -229 -15 -303 22 -51 26 -127 106 -156 163 -89 176
-58 534 67 785 70 139 183 269 274 316 117 59 266 63 374 10z"/>
</g>
</svg>
