<?xml version="1.0" standalone="no"?>
<!DOCTYPE svg PUBLIC "-//W3C//DTD SVG 20010904//EN"
 "http://www.w3.org/TR/2001/REC-SVG-20010904/DTD/svg10.dtd">
<svg version="1.0" xmlns="http://www.w3.org/2000/svg"
 width="512.000000pt" height="512.000000pt" viewBox="0 0 512.000000 512.000000"
 preserveAspectRatio="xMidYMid meet">
<metadata>
Created by potrace 1.11, written by Peter Selinger 2001-2013
</metadata>
<g transform="translate(0.000000,512.000000) scale(0.100000,-0.100000)"
fill="#016b8f" stroke="none">
<path d="M1920 4463 c-19 -10 -45 -33 -57 -52 l-23 -34 0 -767 0 -766 -597
-1010 c-560 -945 -598 -1012 -598 -1056 0 -55 25 -94 76 -120 32 -17 140 -18
1839 -18 1699 0 1807 1 1839 18 51 26 76 65 76 120 0 44 -38 111 -598 1055
l-597 1009 0 761 c0 706 -1 765 -18 796 -50 100 -186 106 -249 12 l-23 -34 2
-806 3 -806 -45 46 c-25 25 -77 61 -115 80 -67 33 -74 34 -185 34 -109 0 -119
-2 -182 -32 -170 -80 -270 -260 -239 -429 23 -122 112 -248 212 -297 32 -16
16 -17 -325 -17 l-358 0 14 23 c8 12 91 150 184 307 l169 285 3 167 c2 93 5
168 7 168 1 0 22 -9 46 -20 102 -46 235 -16 315 72 71 77 87 178 45 273 -28
63 -63 100 -126 133 -68 35 -179 37 -242 4 l-43 -22 0 412 c0 373 -2 416 -18
447 -36 71 -123 100 -192 64z m1269 -2031 c68 -118 132 -229 143 -248 l20 -34
-264 0 c-252 0 -262 1 -229 17 18 9 57 39 87 66 111 101 160 280 112 407 -17
47 9 5 131 -208z"/>
<path d="M2549 4223 c-182 -93 -138 -343 69 -388 75 -16 189 42 226 114 42 80
27 171 -40 237 -69 70 -163 83 -255 37z"/>
</g>
</svg>
