<?xml version="1.0" standalone="no"?>
<!DOCTYPE svg PUBLIC "-//W3C//DTD SVG 20010904//EN"
 "http://www.w3.org/TR/2001/REC-SVG-20010904/DTD/svg10.dtd">
<svg version="1.0" xmlns="http://www.w3.org/2000/svg"
 width="512.000000pt" height="512.000000pt" viewBox="0 0 512.000000 512.000000"
 preserveAspectRatio="xMidYMid meet">
<metadata>
Created by potrace 1.11, written by Peter Selinger 2001-2013
</metadata>
<g transform="translate(0.000000,512.000000) scale(0.100000,-0.100000)"
fill="#016b8f" stroke="none">
<path d="M0 3360 l0 -1759 880 -721 880 -720 -2 1922 -3 1921 -760 483 c-418
267 -813 518 -877 559 l-118 74 0 -1759z"/>
<path d="M4240 4561 l-875 -558 -3 -1922 -2 -1921 880 720 880 721 0 1759 c0
968 -1 1760 -2 1759 -2 0 -397 -252 -878 -558z"/>
<path d="M670 5053 c-25 -1 -78 -5 -118 -9 l-73 -6 800 -479 800 -479 479 0
479 0 798 477 798 478 -44 8 c-24 5 -172 10 -329 10 -321 1 -409 -10 -631 -77
-328 -99 -806 -364 -1012 -561 l-57 -55 -48 46 c-149 145 -515 370 -784 484
-213 89 -407 140 -613 160 -101 9 -334 11 -445 3z"/>
<path d="M2080 1920 l0 -1920 480 0 480 0 0 1920 0 1920 -480 0 -480 0 0
-1920z"/>
</g>
</svg>
