<?xml version="1.0" standalone="no"?>
<!DOCTYPE svg PUBLIC "-//W3C//DTD SVG 20010904//EN"
 "http://www.w3.org/TR/2001/REC-SVG-20010904/DTD/svg10.dtd">
<svg version="1.0" xmlns="http://www.w3.org/2000/svg"
 width="512.000000pt" height="512.000000pt" viewBox="0 0 512.000000 512.000000"
 preserveAspectRatio="xMidYMid meet">
<metadata>
Created by potrace 1.11, written by Peter Selinger 2001-2013
</metadata>
<g transform="translate(0.000000,512.000000) scale(0.100000,-0.100000)"
fill="#016b8f" stroke="none">
<path d="M4167 4469 c-59 -14 -129 -54 -174 -98 -23 -23 -442 -628 -933 -1346
-490 -717 -899 -1313 -908 -1324 -17 -19 -30 -5 -487 490 -592 643 -565 615
-644 653 -59 28 -76 31 -156 31 -76 0 -99 -5 -147 -27 -216 -100 -301 -370
-184 -585 41 -74 901 -1016 1251 -1370 158 -160 200 -197 249 -219 149 -68
339 -25 440 100 56 69 2095 3056 2120 3105 73 144 55 325 -44 450 -93 118
-244 173 -383 140z"/>
</g>
</svg>
