<?xml version="1.0" standalone="no"?>
<!DOCTYPE svg PUBLIC "-//W3C//DTD SVG 20010904//EN"
 "http://www.w3.org/TR/2001/REC-SVG-20010904/DTD/svg10.dtd">
<svg version="1.0" xmlns="http://www.w3.org/2000/svg"
 width="512.000000pt" height="512.000000pt" viewBox="0 0 512.000000 512.000000"
 preserveAspectRatio="xMidYMid meet">
<metadata>
Created by potrace 1.11, written by Peter Selinger 2001-2013
</metadata>
<g transform="translate(0.000000,512.000000) scale(0.100000,-0.100000)"
fill="#016b8f" stroke="none">
<path d="M3914 4790 c-60 -13 -102 -32 -274 -125 -280 -152 -560 -263 -855
-338 -323 -83 -547 -107 -980 -107 l-316 0 -62 -31 c-286 -145 -499 -467 -525
-794 -37 -472 222 -880 663 -1043 200 -74 211 -83 202 -169 -3 -32 -35 -159
-70 -283 -166 -570 -246 -1022 -250 -1407 -2 -115 0 -134 16 -150 16 -17 49
-18 425 -21 224 -2 422 0 440 3 19 4 39 16 49 31 15 23 15 38 -2 202 -23 231
-31 681 -16 882 14 187 44 399 71 504 11 43 40 121 65 173 l45 96 72 -7 c312
-31 931 -203 1163 -325 222 -116 399 -71 625 158 106 107 168 203 232 359 264
643 210 1586 -118 2078 -98 148 -222 253 -353 297 -64 22 -186 30 -247 17z
m326 -327 c146 -108 252 -374 306 -773 24 -173 24 -557 0 -730 -48 -350 -145
-622 -274 -761 -98 -107 -176 -113 -274 -21 -62 58 -126 165 -177 297 -234
602 -156 1638 146 1949 60 62 96 77 169 73 49 -2 68 -9 104 -34z"/>
<path d="M1117 4210 c-194 -33 -387 -150 -506 -306 -71 -94 -137 -232 -165
-344 -17 -70 -27 -95 -42 -100 -43 -17 -84 -92 -84 -157 0 -58 37 -123 79
-141 34 -15 38 -21 59 -96 81 -290 324 -535 584 -590 165 -34 162 -35 72 31
-372 277 -503 757 -323 1188 86 207 286 416 482 505 l42 20 -75 -1 c-41 -1
-97 -5 -123 -9z"/>
</g>
</svg>
