<?xml version="1.0" standalone="no"?>
<!DOCTYPE svg PUBLIC "-//W3C//DTD SVG 20010904//EN"
 "http://www.w3.org/TR/2001/REC-SVG-20010904/DTD/svg10.dtd">
<svg version="1.0" xmlns="http://www.w3.org/2000/svg"
 width="512.000000pt" height="512.000000pt" viewBox="0 0 512.000000 512.000000"
 preserveAspectRatio="xMidYMid meet">
<metadata>
Created by potrace 1.11, written by Peter Selinger 2001-2013
</metadata>
<g transform="translate(0.000000,512.000000) scale(0.100000,-0.100000)"
fill="#016b8f" stroke="none">
<path d="M1237 4441 c-56 -36 -93 -89 -107 -156 -7 -34 -10 -582 -8 -1755 3
-1549 4 -1708 19 -1741 23 -51 75 -107 123 -132 l41 -22 1255 0 c1000 0 1262
3 1291 13 48 17 107 75 133 131 l21 46 0 1280 0 1280 -21 46 c-14 31 -148 185
-399 460 -208 228 -405 442 -439 477 -108 112 -8 102 -999 102 l-863 0 -47
-29z m2083 -731 c179 -193 327 -356 329 -361 2 -7 -113 -9 -310 -7 -280 3
-317 5 -340 21 -47 32 -49 46 -49 410 l1 342 22 -26 c12 -15 168 -185 347
-379z m-950 -434 c0 -58 -3 -75 -16 -80 -28 -11 -704 -7 -725 4 -16 9 -19 22
-19 80 l0 70 380 0 380 0 0 -74z m1150 -640 c0 -58 -3 -75 -16 -80 -29 -11
-1854 -7 -1875 4 -16 9 -19 22 -19 80 l0 70 955 0 955 0 0 -74z m-640 -640 c0
-58 -3 -75 -16 -80 -29 -11 -1214 -7 -1235 4 -16 9 -19 22 -19 80 l0 70 635 0
635 0 0 -74z m320 -640 c0 -58 -3 -75 -16 -80 -29 -11 -1534 -7 -1555 4 -16 9
-19 22 -19 80 l0 70 795 0 795 0 0 -74z"/>
</g>
</svg>
