<?xml version="1.0" standalone="no"?>
<!DOCTYPE svg PUBLIC "-//W3C//DTD SVG 20010904//EN"
 "http://www.w3.org/TR/2001/REC-SVG-20010904/DTD/svg10.dtd">
<svg version="1.0" xmlns="http://www.w3.org/2000/svg"
 width="512.000000pt" height="512.000000pt" viewBox="0 0 512.000000 512.000000"
 preserveAspectRatio="xMidYMid meet">
<metadata>
Created by potrace 1.11, written by Peter Selinger 2001-2013
</metadata>
<g transform="translate(0.000000,512.000000) scale(0.100000,-0.100000)"
fill="#016b8f" stroke="none">
<path d="M1155 4786 c-114 -29 -146 -55 -453 -360 -262 -260 -297 -298 -328
-362 -61 -122 -61 -134 -20 -734 40 -576 46 -620 105 -710 29 -46 2158 -2206
2215 -2248 44 -33 129 -55 191 -50 118 10 92 -13 1027 931 960 968 903 902
903 1042 0 132 60 64 -1126 1260 -596 600 -1099 1099 -1132 1122 -65 46 -125
69 -202 78 -27 3 -239 12 -470 20 -231 8 -474 17 -540 19 -80 4 -137 1 -170
-8z m376 -636 c140 -26 279 -134 340 -265 129 -274 -22 -593 -316 -670 -214
-55 -452 57 -546 260 -166 354 137 746 522 675z"/>
</g>
</svg>
