<?xml version="1.0" standalone="no"?>
<!DOCTYPE svg PUBLIC "-//W3C//DTD SVG 20010904//EN"
 "http://www.w3.org/TR/2001/REC-SVG-20010904/DTD/svg10.dtd">
<svg version="1.0" xmlns="http://www.w3.org/2000/svg"
 width="512.000000pt" height="512.000000pt" viewBox="0 0 512.000000 512.000000"
 preserveAspectRatio="xMidYMid meet">
<metadata>
Created by potrace 1.11, written by Peter Selinger 2001-2013
</metadata>
<g transform="translate(0.000000,512.000000) scale(0.100000,-0.100000)"
fill="#016b8f" stroke="none">
<path d="M1253 4449 c-24 -11 -56 -36 -72 -55 -64 -73 -61 32 -61 -1823 0
-1891 -5 -1758 73 -1847 21 -24 58 -55 81 -67 l41 -22 1260 0 1260 0 45 25
c24 14 57 43 72 65 61 88 59 40 56 1421 -3 1091 -5 1264 -18 1297 -21 53 -869
981 -921 1008 -37 18 -66 19 -906 19 -861 0 -868 0 -910 -21z m1479 -731 c3
-428 3 -434 26 -484 29 -64 92 -126 157 -156 49 -22 59 -23 408 -26 l357 -3 0
-1050 0 -1049 -1115 0 -1115 0 0 1600 0 1600 640 0 639 0 3 -432z m636 -50
c144 -158 262 -289 262 -292 0 -3 -128 -6 -285 -6 l-285 0 0 317 0 318 23 -25
c13 -14 142 -154 285 -312z"/>
</g>
</svg>
