<?xml version="1.0" standalone="no"?>
<!DOCTYPE svg PUBLIC "-//W3C//DTD SVG 20010904//EN"
 "http://www.w3.org/TR/2001/REC-SVG-20010904/DTD/svg10.dtd">
<svg version="1.0" xmlns="http://www.w3.org/2000/svg"
 width="512.000000pt" height="512.000000pt" viewBox="0 0 512.000000 512.000000"
 preserveAspectRatio="xMidYMid meet">
<metadata>
Created by potrace 1.11, written by Peter Selinger 2001-2013
</metadata>
<g transform="translate(0.000000,512.000000) scale(0.100000,-0.100000)"
fill="#016b8f" stroke="none">
<path d="M960 3600 l0 -400 1600 0 1600 0 0 400 0 400 -1600 0 -1600 0 0 -400z"/>
<path d="M1120 2080 l0 -960 1440 0 1440 0 0 960 0 960 -1440 0 -1440 0 0
-960z m1827 624 c19 -9 46 -33 61 -52 22 -29 27 -46 27 -92 0 -47 -5 -63 -29
-94 -49 -65 -55 -66 -446 -66 -391 0 -397 1 -446 66 -24 31 -29 47 -29 94 0
46 5 63 27 92 51 67 53 68 446 68 308 0 358 -2 389 -16z"/>
</g>
</svg>
