<?xml version="1.0" standalone="no"?>
<!DOCTYPE svg PUBLIC "-//W3C//DTD SVG 20010904//EN"
 "http://www.w3.org/TR/2001/REC-SVG-20010904/DTD/svg10.dtd">
<svg version="1.0" xmlns="http://www.w3.org/2000/svg"
 width="512.000000pt" height="512.000000pt" viewBox="0 0 512.000000 512.000000"
 preserveAspectRatio="xMidYMid meet">
<metadata>
Created by potrace 1.11, written by Peter Selinger 2001-2013
</metadata>
<g transform="translate(0.000000,512.000000) scale(0.100000,-0.100000)"
fill="#016b8f" stroke="none">
<path d="M2390 4794 c-539 -50 -1001 -257 -1380 -621 -359 -344 -588 -785
-667 -1288 -24 -153 -24 -497 0 -650 75 -475 280 -890 606 -1228 347 -359 785
-585 1286 -664 153 -24 497 -24 650 0 988 156 1736 904 1892 1892 24 151 24
496 0 650 -154 984 -910 1742 -1887 1890 -103 15 -411 27 -500 19z m230 -329
c0 -8 -11 -44 -25 -81 -27 -71 -25 -104 11 -194 17 -42 82 -107 94 -93 4 4 40
48 80 96 73 88 99 107 144 107 17 0 32 15 60 60 24 39 44 60 56 60 64 0 380
-130 504 -207 l48 -30 -46 -7 -46 -7 0 -64 c0 -98 26 -145 80 -145 22 0 33 -8
50 -35 14 -22 29 -35 43 -35 56 0 66 -9 65 -58 -1 -26 3 -59 7 -74 6 -22 1
-35 -23 -65 -36 -45 -77 -67 -154 -81 -53 -10 -108 -36 -108 -51 0 -18 88
-147 113 -165 31 -23 80 -26 143 -8 l42 12 7 65 c8 74 23 95 69 95 48 0 112
-46 201 -144 108 -117 171 -160 238 -162 48 -1 53 -4 69 -35 10 -19 18 -43 18
-53 0 -17 -5 -18 -52 -12 -29 3 -69 6 -89 6 -28 0 -53 14 -126 68 -92 71 -121
82 -210 82 -23 0 -54 5 -70 11 -48 18 -162 13 -246 -12 -71 -20 -81 -26 -120
-75 -23 -29 -49 -53 -58 -54 -28 0 -106 -57 -129 -95 -18 -29 -22 -50 -21 -99
1 -39 -8 -103 -25 -172 -16 -64 -28 -139 -28 -182 l-1 -74 78 -74 c87 -84 182
-149 238 -164 21 -6 90 -9 153 -8 107 3 116 1 146 -21 28 -20 36 -22 58 -11
22 10 28 9 39 -6 20 -28 15 -97 -12 -170 -30 -80 -31 -132 -5 -209 35 -101 26
-147 -44 -230 -58 -68 -75 -96 -92 -150 -12 -40 -11 -56 2 -118 8 -40 12 -82
9 -94 -3 -12 -30 -77 -61 -144 -40 -87 -55 -131 -51 -152 4 -27 -2 -33 -65
-74 -162 -105 -429 -211 -633 -252 -362 -73 -737 -40 -1080 95 -60 23 -135 57
-166 73 l-56 31 -26 142 -26 143 31 66 c34 76 82 127 183 196 54 37 82 66 125
129 111 163 118 171 167 184 80 20 118 46 167 114 25 35 59 100 75 144 22 60
41 92 75 125 44 45 66 93 66 149 0 57 -111 140 -223 169 -42 10 -53 19 -87 68
-21 31 -54 88 -73 126 -41 84 -107 150 -198 196 -35 17 -83 49 -107 70 -26 22
-69 46 -106 59 -34 11 -87 36 -116 55 -30 19 -58 35 -63 35 -4 0 -28 -20 -54
-45 -52 -52 -81 -57 -142 -25 -67 34 -81 61 -81 155 0 67 -3 84 -16 89 -24 9
-10 48 32 90 34 34 35 38 21 59 -8 12 -23 21 -34 20 -56 -8 -96 -4 -111 11
-22 21 -21 110 1 152 49 93 192 164 288 143 70 -16 86 -32 109 -109 23 -79 54
-108 69 -68 5 13 14 62 21 111 14 99 19 106 125 147 33 13 71 31 84 39 13 8
38 14 55 13 17 -2 49 6 70 17 56 29 142 52 168 46 43 -10 120 11 141 39 22 30
53 33 94 9 58 -33 107 8 119 101 6 42 5 44 -15 39 -27 -7 -27 7 0 59 l21 41
-43 43 c-24 24 -52 44 -64 44 -11 0 -37 -14 -58 -31 -30 -24 -43 -29 -66 -24
-26 5 -35 1 -67 -34 -42 -47 -104 -72 -129 -51 -15 12 -20 67 -9 105 3 11 41
44 85 74 77 53 79 54 99 36 18 -16 26 -17 71 -7 73 17 84 15 123 -19 l35 -31
61 53 c33 30 60 55 60 57 0 1 -9 21 -20 42 l-20 40 45 0 c33 0 45 -4 45 -15z
m-1692 -972 c-5 -36 -7 -77 -4 -89 9 -36 55 -83 113 -116 51 -29 53 -31 53
-73 0 -37 5 -47 29 -65 23 -16 32 -33 41 -77 12 -55 21 -68 88 -125 26 -21 32
-33 32 -66 0 -56 -12 -84 -83 -187 l-62 -90 2 -111 c1 -71 6 -122 16 -145 20
-47 128 -179 170 -207 33 -22 34 -24 29 -78 -4 -46 -1 -61 18 -86 20 -27 22
-37 15 -100 -3 -38 -13 -99 -20 -136 -11 -50 -12 -77 -4 -108 8 -30 8 -63 0
-112 -14 -88 -14 -148 -1 -172 5 -10 16 -60 24 -112 18 -121 60 -213 124 -269
40 -35 42 -38 14 -23 -19 11 -71 47 -118 82 -362 272 -625 683 -720 1127 -87
407 -37 850 137 1215 58 123 97 190 108 190 4 0 4 -30 -1 -67z"/>
<path d="M2905 4215 c-33 -12 -61 -29 -63 -37 -4 -22 28 -45 81 -56 48 -10 49
-10 59 19 5 16 14 29 20 29 17 0 4 42 -17 55 -17 11 -30 9 -80 -10z"/>
<path d="M3405 3989 c-4 -5 -4 -21 -1 -34 5 -18 0 -28 -20 -42 -21 -15 -25
-25 -19 -42 6 -20 12 -22 45 -17 l38 6 6 -44 c12 -76 62 -95 125 -47 24 19 24
19 8 63 -18 46 -49 83 -115 136 -43 34 -57 38 -67 21z"/>
<path d="M1462 3423 c-22 -4 -49 -40 -38 -50 10 -10 148 -32 203 -32 28 -1 55
4 58 9 8 13 -36 30 -78 30 -18 0 -50 12 -72 25 -22 14 -42 24 -45 24 -3 -1
-15 -4 -28 -6z"/>
<path d="M1665 3262 l-50 -26 65 -7 c36 -4 75 -10 88 -14 18 -6 22 -4 22 16 0
22 -18 36 -65 54 -5 2 -32 -8 -60 -23z"/>
</g>
</svg>
