<?xml version="1.0" standalone="no"?>
<!DOCTYPE svg PUBLIC "-//W3C//DTD SVG 20010904//EN"
 "http://www.w3.org/TR/2001/REC-SVG-20010904/DTD/svg10.dtd">
<svg version="1.0" xmlns="http://www.w3.org/2000/svg"
 width="512.000000pt" height="512.000000pt" viewBox="0 0 512.000000 512.000000"
 preserveAspectRatio="xMidYMid meet">
<metadata>
Created by potrace 1.11, written by Peter Selinger 2001-2013
</metadata>
<g transform="translate(0.000000,512.000000) scale(0.100000,-0.100000)"
fill="#016b8f" stroke="none">
<path d="M1775 4465 c-156 -29 -300 -107 -400 -218 -70 -77 -140 -215 -161
-317 -14 -68 -14 -91 1 -255 16 -169 16 -185 0 -239 -14 -48 -15 -68 -6 -121
16 -88 48 -189 81 -255 16 -31 38 -102 50 -163 34 -170 63 -243 131 -333 25
-32 42 -69 50 -104 16 -73 7 -313 -13 -360 -34 -80 -99 -118 -388 -228 -471
-179 -692 -298 -756 -408 -23 -39 -26 -59 -34 -196 -5 -84 -9 -260 -10 -390
l0 -238 1625 0 1625 0 -1 243 c0 133 -4 308 -8 389 -8 134 -11 151 -35 193
-66 112 -317 245 -787 419 -363 133 -373 145 -374 426 0 183 1 188 75 282 49
62 75 132 110 293 17 82 41 158 63 205 20 41 46 121 58 177 23 101 23 104 5
170 -16 64 -16 78 -1 243 15 159 15 182 1 250 -34 165 -146 332 -285 425 -164
108 -399 150 -616 110z"/>
<path d="M3430 3924 c-103 -18 -213 -67 -283 -125 -46 -38 -116 -137 -148
-209 -20 -47 -24 -71 -24 -170 0 -63 1 -149 3 -190 2 -41 0 -101 -3 -133 -9
-70 14 -175 55 -257 15 -30 31 -75 35 -100 17 -109 50 -212 97 -305 l51 -100
1 -117 c1 -134 -6 -150 -89 -205 l-48 -32 29 -11 c16 -7 74 -29 129 -50 289
-109 462 -225 529 -358 39 -76 45 -147 53 -550 l6 -372 490 0 490 0 -5 442
c-4 361 -8 449 -20 478 -42 98 -247 211 -643 355 -275 99 -269 93 -267 293 l1
133 41 76 c52 94 75 159 100 286 11 55 29 115 40 133 12 18 32 76 45 130 23
88 24 103 13 155 -9 44 -9 89 -1 191 7 81 8 150 3 178 -38 195 -166 342 -354
408 -56 19 -96 25 -186 27 -63 2 -126 2 -140 -1z"/>
</g>
</svg>
